{"title":"Michael Isley - Never Lose Your Soul HD 720p By Haunting Summer","uid":6502433,"size":59406800,"categoryP":"video","categoryS":"music_videos","magnet":"?xt=urn:btih:6c492937326c244df742faa96739d74bec2300d3&amp;dn=Michael+Isley+-+Never+Lose+Your+Soul+HD+720p+By+Haunting+Summer&amp;tr=udp%3A%2F%2Ftracker.openbittorrent.com%3A80&amp;tr=udp%3A%2F%2Fopen.demonii.com%3A1337&amp;tr=udp%3A%2F%2Ftracker.coppersurfer.tk%3A6969&amp;tr=udp%3A%2F%2Fexodus.desync.com%3A6969","seeders":0,"leechers":1,"uploader":"HaUnTiNg.SuMMeR","files":-1,"time":1309295568,"description":"============== Michael isley - Never Lose Your Soul HD ==========================\n\n\nFormat                           : MPEG-4\nFormat profile                   : Base Media\nCodec ID                         : isom\nFile size                        : 56.7 MiB\nDuration                         : 3mn 42s\nOverall bit rate                 : 2 140 Kbps\n\nVideo\nID                               : 1\nFormat                           : MPEG-4 Visual\nFormat profile                   : Simple@L1\nFormat settings, BVOP            : No\nFormat settings, QPel            : No\nFormat settings, GMC             : No warppoints\nFormat settings, Matrix          : Default (H.263)\nCodec ID                         : 20\nDuration                         : 3mn 41s\nBit rate mode                    : Variable\nBit rate                         : 2 075 Kbps\nWidth                            : 720 pixels\nHeight                           : 576 pixels\nDisplay aspect ratio             : 16:9\nFrame rate mode                  : Constant\nFrame rate                       : 29.970 fps\nStandard                         : PAL\nColor space                      : YUV\nChroma subsampling               : 4:2:0\nBit depth                        : 8 bits\nScan type                        : Progressive\nBits/(Pixel*Frame)               : 0.167\nStream size                      : 54.8 MiB (97%)\nWriting library                  : Lavc52.37.0\n\nAudio\nID                               : 2\nFormat                           : AAC\nFormat/Info                      : Advanced Audio Codec\nFormat version                   : Version 4\nFormat profile                   : LC\nFormat settings, SBR             : No\nCodec ID                         : 40\nDuration                         : 3mn 42s\nBit rate mode                    : Variable\nBit rate                         : 63.6 Kbps\nChannel(s)                       : 2 channels\nChannel positions                : Front: L R\nSampling rate                    : 44.1 KHz\nStream size                      : 1.68 MiB (3%)\n\n============================= SCREEN SHOTS =====================================\n\n                     &lt;a href=&quot; http://bayimg.com/CAIPFAAdN&quot; rel=&quot;nofollow&quot; target=&quot;_NEW&quot;&gt; http://bayimg.com/CAIPFAAdN&lt;/a&gt;\n                     &lt;a href=&quot; http://bayimg.com/cAipgAaDN&quot; rel=&quot;nofollow&quot; target=&quot;_NEW&quot;&gt; http://bayimg.com/cAipgAaDN&lt;/a&gt;\n                     &lt;a href=&quot; http://bayimg.com/CAipHaADN&quot; rel=&quot;nofollow&quot; target=&quot;_NEW&quot;&gt; http://bayimg.com/CAipHaADN&lt;/a&gt;\n\n\n============================ FOLLOW ME ON TWEETER AND FACEBOOK =================\n\n           http :///#!/ haunting_summer\n\n  http: // www. facebook. com/ pages/ HaUnTiNgSuMMeR-ToRrEnTs/ 192812490771363\n\n=================================================================================\n\n--------------- PLZ RATE +/- THE QUALITY N COMMENT IF POSSIBLE -----------------\n","torrent":{"xt":"urn:btih:6c492937326c244df742faa96739d74bec2300d3","amp;dn":"Michael+Isley+-+Never+Lose+Your+Soul+HD+720p+By+Haunting+Summer","amp;tr":["udp%3A%2F%2Ftracker.openbittorrent.com%3A80","udp%3A%2F%2Fopen.demonii.com%3A1337","udp%3A%2F%2Ftracker.coppersurfer.tk%3A6969","udp%3A%2F%2Fexodus.desync.com%3A6969"],"infoHash":"6c492937326c244df742faa96739d74bec2300d3","infoHashBuffer":{"type":"Buffer","data":[108,73,41,55,50,108,36,77,247,66,250,169,103,57,215,75,236,35,0,211]},"announce":[],"urlList":[]}}